<?xml version="1.0" encoding="UTF-8"?>
<svg width="46px" height="46px" viewBox="0 0 46 46" version="1.1" xmlns="http://www.w3.org/2000/svg" xmlns:xlink="http://www.w3.org/1999/xlink">
    <title>btn_to_slider</title>
    <g id="Page-1" stroke="none" stroke-width="1" fill="none" fill-rule="evenodd">
        <g id="voteApp" transform="translate(-313, -927)">
            <g id="Group-Copy" transform="translate(297, 257)">
                <g id="btn_to_slider" transform="translate(16, 670)">
                    <rect id="Rectangle" fill="#EEEEEE" x="0" y="0" width="46" height="46" rx="8"></rect>
                    <path d="M7,25 L9,25 L9,34 L7,34 Z M12,25 L14,25 L14,30 L12,30 Z M17,25 L19,25 L19,34 L17,34 Z M22,25 L24,25 L24,30 L22,30 Z M27,25 L29,25 L29,34 L27,34 Z M32,25 L34,25 L34,30 L32,30 Z M37,25 L39,25 L39,34 L37,34 Z M22.5,21 L18,12 L27,12 L22.5,21 Z" id="Combined-Shape" fill="#747A7A"></path>
                </g>
            </g>
        </g>
    </g>
</svg>