<?xml version="1.0" encoding="UTF-8"?>
<svg width="46px" height="46px" viewBox="0 0 46 46" version="1.1" xmlns="http://www.w3.org/2000/svg" xmlns:xlink="http://www.w3.org/1999/xlink">
    <title>btn_refresh</title>
    <g id="Page-1" stroke="none" stroke-width="1" fill="none" fill-rule="evenodd">
        <g id="voteApp" transform="translate(-1391, -926)">
            <g id="Group-2-Copy" transform="translate(1025, 257)">
                <g id="btn_refresh" transform="translate(366, 669)">
                    <rect id="Rectangle" fill="#EEEEEE" x="0" y="0" width="46" height="46" rx="8"></rect>
                    <g id="noun-refresh-2673762" transform="translate(7, 7)" fill="#747A7A" fill-rule="nonzero">
                        <g id="Group">
                            <path d="M15.6496554,27.7658079 C9.72486399,27.7658079 4.8145917,23.2207625 4.28704178,17.4177134 L1,17.4177134 L5.86969153,9.4638839 L10.7393831,17.4177134 L7.29001823,17.4177134 C7.81756814,21.597532 11.3480945,24.843993 15.6902361,24.843993 C17.9627588,24.843993 20.1135393,23.9106354 21.6556082,22.3685665 L23.1165157,24.8034122 L23.1976772,24.9251545 C21.1280583,26.7107081 18.4903087,27.7658079 15.6496554,27.7658079 Z M25.5919422,23.2613432 L20.7222507,15.3075137 L24.0092925,15.3075137 C23.4817426,11.1276952 19.9512162,7.88123416 15.6496554,7.88123416 C13.3771326,7.88123416 11.266933,8.77401094 9.76544476,10.2754992 L8.34511806,7.96239568 L8.22337577,7.75949187 C10.2118331,6.01451907 12.809002,5 15.6496554,5 C21.5744467,5 26.4441382,9.54504543 26.9716882,15.3480945 L30.421053,15.3480945 L25.5919422,23.2613432 Z" id="Shape"></path>
                        </g>
                    </g>
                </g>
            </g>
        </g>
    </g>
</svg>