<?xml version="1.0" encoding="UTF-8"?>
<svg width="46px" height="46px" viewBox="0 0 46 46" version="1.1" xmlns="http://www.w3.org/2000/svg" xmlns:xlink="http://www.w3.org/1999/xlink">
    <title>btn_stealth_OFF</title>
    <g id="Page-1" stroke="none" stroke-width="1" fill="none" fill-rule="evenodd">
        <g id="voteApp" transform="translate(-1583, -926)">
            <g id="btn_stealth_OFF" transform="translate(1583, 926)">
                <rect id="Rectangle" fill="#EEEEEE" x="0" y="0" width="46" height="46" rx="8"></rect>
                <g id="Group-6" transform="translate(5, 8.0043)" fill="#747A7A">
                    <path d="M26.6371376,3.85042804 C27.7792075,3.60205127 28.9678863,3.66787648 30.0738249,4.04195856 C31.1812656,4.41605596 32.1638256,5.08342489 32.9176558,5.9722414 C33.6529148,6.84758566 34.2728505,7.81274623 34.7588533,8.84670457 C36.162703,11.9215355 36.3839215,15.4020663 35.3802913,18.628168 C34.9590016,20.1080094 34.3059774,21.5130773 33.446796,22.7924245 C32.7155384,23.8892431 31.6652608,24.7406729 30.437446,25.2299567 C29.2096312,25.7207537 27.8599402,25.8284896 26.5689146,25.5382021 C25.7880051,25.3556735 25.0281274,25.0938092 24.3013766,24.7601286 C22.5651406,23.9610633 21.0439214,22.7639975 19.8627539,21.2676845 C19.6791691,20.9788718 19.4128441,20.7499354 19.0998717,20.6092792 C18.7914061,20.4790994 18.4498405,20.4431878 18.1203162,20.5105223 C18.0405689,20.5254854 17.9593155,20.5254854 17.8795682,20.5105223 C17.2159897,20.3743441 16.5358939,20.6601459 16.1702574,21.2272678 C14.9831965,22.7400907 13.4499591,23.9506019 11.6985078,24.7586308 C10.971757,25.092277 10.2118793,25.352655 9.43096985,25.5367044 C8.95848746,25.6459342 8.4754892,25.7012992 7.9894864,25.7027958 C5.80330199,25.6937939 3.76445535,24.6014953 2.55320402,22.7909191 C1.69406109,21.5115718 1.04103696,20.10501 0.619708704,18.6251303 C-0.383921548,15.3989903 -0.162703028,11.920145 1.2411467,8.84519914 C1.72714949,7.81273474 2.3470467,6.84608023 3.08284962,5.9722414 C3.83667975,5.08342489 4.81923973,4.41604064 5.92668052,4.04195856 C7.03261904,3.66787648 8.22133636,3.60203595 9.36336782,3.85042804 C10.2812171,4.04646719 11.2171297,4.23350823 12.1741126,4.41306809 C13.088955,4.58514676 13.9887362,4.74375701 14.8764993,4.89189438 C16.9438505,5.23605173 19.0565779,5.23605173 21.1240061,4.89189438 C22.0117715,4.74525478 22.9130549,4.58514676 23.8278973,4.41306809 C24.783378,4.23199131 25.7192906,4.04495027 26.6371376,3.85042804 Z M24.2101413,11.1440629 C22.1432265,11.9570498 20.6011634,13.5777979 20.0203802,15.5449774 C19.9567083,15.7636973 20.0452272,15.9950297 20.244003,16.132425 C21.6649322,17.134894 23.4104225,17.6858752 25.2133987,17.7027086 C26.3936501,17.7083168 27.5552165,17.44333 28.5910374,16.9330004 C30.2200848,16.0763614 31.4282443,14.6939375 31.9717769,13.0634627 C32.043213,12.8573625 31.9764358,12.6330435 31.8009529,12.4872135 C30.8055233,11.6389732 29.5647249,11.062724 28.2214376,10.8243998 C26.8765998,10.5874539 25.4867195,10.6982172 24.2101413,11.1440629 Z M7.77946996,10.8244045 C6.4360795,11.0627501 5.19518573,11.6389773 4.19967969,12.4872169 C4.02418293,12.6330288 3.95740105,12.8573369 4.02729202,13.0634656 C4.57086639,14.6940468 5.780709,16.0764336 7.40984178,16.9330002 C8.44574217,17.443351 9.60739781,17.7083428 10.7877398,17.7027078 C12.5908546,17.6858833 14.3364789,17.1348937 15.7575172,16.1324254 C15.9547537,15.9950266 16.0432794,15.765105 15.9796026,15.5463781 C15.4018759,13.5779081 13.8581438,11.9571613 11.7894839,11.1438448 C10.5128873,10.6982148 9.12290018,10.5874516 7.77946996,10.8244045 Z" id="Combined-Shape" fill-rule="nonzero"></path>
                    <rect id="Rectangle" stroke="#EEEEEE" stroke-width="2" transform="translate(20, 15.2028) rotate(-45) translate(-20, -15.2028)" x="-1" y="12.7027958" width="42" height="5"></rect>
                </g>
            </g>
        </g>
    </g>
</svg>