<?xml version="1.0" encoding="UTF-8"?>
<svg width="46px" height="46px" viewBox="0 0 46 46" version="1.1" xmlns="http://www.w3.org/2000/svg" xmlns:xlink="http://www.w3.org/1999/xlink">
    <title>btn_to_numpad</title>
    <g id="Page-1" stroke="none" stroke-width="1" fill="none" fill-rule="evenodd">
        <g id="voteApp" transform="translate(-1042, -926)">
            <g id="Group-2-Copy" transform="translate(1025, 257)">
                <g id="btn_to_numpad" transform="translate(17, 669)">
                    <rect id="Rectangle" fill="#EEEEEE" x="0" y="0" width="46" height="46" rx="8"></rect>
                    <path d="M12,9 L19,9 L19,16 L12,16 Z M20,9 L27,9 L27,16 L20,16 Z M28,9 L35,9 L35,16 L28,16 Z M12,17 L19,17 L19,24 L12,24 Z M20,17 L27,17 L27,24 L20,24 Z M28,17 L35,17 L35,24 L28,24 Z M12,25 L19,25 L19,32 L12,32 Z M20,25 L27,25 L27,32 L20,32 Z M28,25 L35,25 L35,32 L28,32 Z M20,33 L27,33 L27,40 L20,40 Z" id="Combined-Shape" fill="#747A7A"></path>
                </g>
            </g>
        </g>
    </g>
</svg>