<?xml version="1.0" encoding="UTF-8"?>
<svg width="46px" height="46px" viewBox="0 0 46 46" version="1.1" xmlns="http://www.w3.org/2000/svg" xmlns:xlink="http://www.w3.org/1999/xlink">
    <title>btn_stealth_ON</title>
    <g id="Page-1" stroke="none" stroke-width="1" fill="none" fill-rule="evenodd">
        <g id="voteApp" transform="translate(-1635, -926)">
            <g id="btn_stealth_ON" transform="translate(1635, 926)">
                <rect id="Rectangle" fill="#EEEEEE" x="0" y="0" width="46" height="46" rx="8"></rect>
                <g id="Group-6" transform="translate(5, 11.7071)" fill="#747A7A" fill-rule="nonzero">
                    <path d="M26.6371376,0.147632247 C27.7792075,-0.100744526 28.9678863,-0.0349193181 30.0738249,0.339162763 C31.1812656,0.713260166 32.1638256,1.3806291 32.9176558,2.26944561 C33.6529148,3.14478986 34.2728505,4.10995044 34.7588533,5.14390877 C36.162703,8.21873968 36.3839215,11.6992705 35.3802913,14.9253722 C34.9590016,16.4052136 34.3059774,17.8102815 33.446796,19.0896287 C32.7155384,20.1864473 31.6652608,21.0378771 30.437446,21.527161 C29.2096312,22.0179579 27.8599402,22.1256938 26.5689146,21.8354063 C25.7880051,21.6528778 25.0281274,21.3910134 24.3013766,21.0573328 C22.5651406,20.2582675 21.0439214,19.0612017 19.8627539,17.5648887 C19.6791691,17.276076 19.4128441,17.0471396 19.0998717,16.9064834 C18.7914061,16.7763036 18.4498405,16.740392 18.1203162,16.8077265 C18.0405689,16.8226896 17.9593155,16.8226896 17.8795682,16.8077265 C17.2159897,16.6715483 16.5358939,16.9573501 16.1702574,17.524472 C14.9831965,19.0372949 13.4499591,20.2478061 11.6985078,21.055835 C10.971757,21.3894812 10.2118793,21.6498592 9.43096985,21.8339086 C8.95848746,21.9431384 8.4754892,21.9985034 7.9894864,22 C5.80330199,21.9909981 3.76445535,20.8986995 2.55320402,19.0881233 C1.69406109,17.808776 1.04103696,16.4022142 0.619708704,14.9223345 C-0.383921548,11.6961945 -0.162703028,8.21734916 1.2411467,5.14240334 C1.72714949,4.10993895 2.3470467,3.14328443 3.08284962,2.26944561 C3.83667975,1.3806291 4.81923973,0.713244844 5.92668052,0.339162763 C7.03261904,-0.0349193181 8.22133636,-0.100759848 9.36336782,0.147632247 C10.2812171,0.343671391 11.2171297,0.530712432 12.1741126,0.71027229 C13.088955,0.882350967 13.9887362,1.04096122 14.8764993,1.18909858 C16.9438505,1.53325593 19.0565779,1.53325593 21.1240061,1.18909858 C22.0117715,1.04245899 22.9130549,0.882350967 23.8278973,0.71027229 C24.783378,0.52919551 25.7192906,0.34215447 26.6371376,0.147632247 Z M24.2101413,7.44126707 C22.1432265,8.25425404 20.6011634,9.87500208 20.0203802,11.8421816 C19.9567083,12.0609015 20.0452272,12.2922339 20.244003,12.4296292 C21.6649322,13.4320982 23.4104225,13.9830794 25.2133987,13.9999128 C26.3936501,14.005521 27.5552165,13.7405342 28.5910374,13.2302046 C30.2200848,12.3735656 31.4282443,10.9911417 31.9717769,9.3606669 C32.043213,9.15456673 31.9764358,8.93024767 31.8009529,8.78441768 C30.8055233,7.93617739 29.5647249,7.35992817 28.2214376,7.12160398 C26.8765998,6.88465806 25.4867195,6.99542138 24.2101413,7.44126707 Z M7.77946996,7.12160874 C6.4360795,7.35995427 5.19518573,7.93618148 4.19967969,8.78442108 C4.02418293,8.93023301 3.95740105,9.15454112 4.02729202,9.36066983 C4.57086639,10.991251 5.780709,12.3736379 7.40984178,13.2302044 C8.44574217,13.7405552 9.60739781,14.005547 10.7877398,13.999912 C12.5908546,13.9830875 14.3364789,13.4320979 15.7575172,12.4296296 C15.9547537,12.2922308 16.0432794,12.0623092 15.9796026,11.8435823 C15.4018759,9.87511227 13.8581438,8.25436555 11.7894839,7.44104903 C10.5128873,6.99541905 9.12290018,6.88465582 7.77946996,7.12160874 Z" id="Combined-Shape"></path>
                </g>
            </g>
        </g>
    </g>
</svg>